<svg width="31" height="31" viewBox="0 0 31 31" fill="none" xmlns="http://www.w3.org/2000/svg">
<path d="M15.1894 11.7585C13.4253 11.7585 11.998 13.1809 11.998 14.9389C11.998 16.6969 13.4253 18.1194 15.1894 18.1194C16.9534 18.1194 18.3807 16.6969 18.3807 14.9389C18.3807 13.1809 16.9534 11.7585 15.1894 11.7585Z" fill="#BFC8CF"/>
<path d="M15.1934 0C6.87826 0 0.134766 6.72041 0.134766 15.007C0.134766 23.2937 6.87826 30.0141 15.1934 30.0141C23.5085 30.0141 30.252 23.2937 30.252 15.007C30.252 6.71641 23.5085 0 15.1934 0ZM24.0417 19.9255C24.0417 22.2029 22.1734 24.0688 19.8841 24.0688H10.4986C8.21333 24.0688 6.34102 22.2069 6.34102 19.9255V10.0886C6.34102 7.81118 8.20932 5.94529 10.4986 5.94529H19.8841C22.1694 5.94529 24.0417 7.80718 24.0417 10.0886V19.9255Z" fill="#BFC8CF"/>
<path d="M18.8939 7.29974H11.4929C10.4866 7.29974 9.53638 7.69528 8.81873 8.41048C8.10108 9.12567 7.70417 10.0726 7.70417 11.0755V18.9346C7.70417 19.9375 8.10108 20.8844 8.81873 21.5996C9.53638 22.3148 10.4866 22.7103 11.4929 22.7103H18.8939C19.9002 22.7103 20.8504 22.3148 21.568 21.5996C22.2857 20.8844 22.6826 19.9375 22.6826 18.9346V11.0755C22.6826 10.0726 22.2857 9.12567 21.568 8.41048C20.8504 7.69528 19.9002 7.29974 18.8939 7.29974ZM15.2214 19.7936C12.5313 19.7936 10.3462 17.6201 10.3462 14.9351C10.3462 12.2541 12.5273 10.0766 15.2214 10.0766C17.9156 10.0766 20.0966 12.2501 20.0966 14.9351C20.0926 17.6201 17.9116 19.7936 15.2214 19.7936ZM20.1728 11.1554C19.5354 11.1554 19.0182 10.64 19.0182 10.0047C19.0182 9.3694 19.5354 8.85398 20.1728 8.85398C20.8103 8.85398 21.3275 9.3694 21.3275 10.0047C21.3275 10.64 20.8103 11.1554 20.1728 11.1554Z" fill="#BFC8CF"/>
</svg>
