<svg width="31" height="30" viewBox="0 0 31 30" fill="none" xmlns="http://www.w3.org/2000/svg">
<path d="M16.3395 30.0069H14.4606C14.0935 29.9615 13.7263 29.9231 13.3599 29.8706C10.3678 29.444 7.72177 28.2533 5.46165 26.2484C2.85159 23.9327 1.22168 21.0549 0.602433 17.6189C0.502227 17.0638 0.445861 16.5017 0.369141 15.9428C0.369141 15.3181 0.369141 14.6925 0.369141 14.0678C0.445078 13.8823 0.419244 13.6834 0.440381 13.4909C0.787971 10.3117 1.98496 7.49336 4.11983 5.10642C7.0532 1.82702 10.7444 0.118817 15.1503 0.0115648C18.0046 -0.0581098 20.6812 0.641768 23.1128 2.13625C26.9841 4.51536 29.3655 7.94507 30.2 12.4199C30.3018 12.9648 30.3551 13.5183 30.431 14.0678V15.9428C30.348 16.1275 30.3809 16.3272 30.3597 16.5197C30.0364 19.4868 28.96 22.1485 27.0623 24.4564C24.7028 27.3264 21.6841 29.1081 18.018 29.7744C17.4629 29.8753 16.8992 29.9301 16.3395 30.0069ZM18.6364 12.0754C18.7186 12.131 18.7828 12.1741 18.8462 12.2187C20.0002 13.018 21.2747 13.4541 22.6815 13.5057C22.8599 13.512 22.9453 13.4869 22.9421 13.2779C22.9304 12.5068 22.9312 11.7349 22.9421 10.9638C22.9445 10.7673 22.8748 10.7188 22.6908 10.7172C22.3879 10.7141 22.0888 10.6546 21.796 10.5739C20.026 10.0862 18.7906 8.62146 18.6208 6.78331C18.5965 6.51714 18.5299 6.42319 18.245 6.43337C17.5709 6.45842 16.8953 6.43807 16.2205 6.44276C15.7359 6.4459 15.7954 6.37152 15.7954 6.85377C15.7923 10.5637 15.7915 14.2745 15.7884 17.9845C15.7884 18.1794 15.7805 18.3751 15.761 18.5693C15.6287 19.8688 14.4458 20.8646 13.1157 20.7989C11.8044 20.7339 10.7233 19.6332 10.7045 18.3438C10.6794 16.6661 12.1504 15.4637 13.8124 15.8097C13.9807 15.8449 14.0551 15.8441 14.052 15.6328C14.0402 14.8327 14.0434 14.0318 14.0504 13.2309C14.052 13.0673 13.9972 13.0204 13.8367 13.0016C13.2965 12.9382 12.7642 12.9656 12.231 13.0626C9.29767 13.595 7.33817 16.4869 7.97228 19.3498C8.62989 22.3192 11.6165 24.1659 14.5397 23.4113C17.0018 22.7756 18.6145 20.7034 18.6137 18.163C18.6137 16.2489 18.6004 14.3356 18.5949 12.4215C18.5949 12.3174 18.5675 12.2085 18.6364 12.0754Z" fill="#BFC8CF"/>
</svg>
