<svg width="16" height="20" viewBox="0 0 16 20" fill="none" xmlns="http://www.w3.org/2000/svg">
<path fill-rule="evenodd" clip-rule="evenodd" d="M4.55596 5C4.55596 3.067 6.12297 1.5 8.05596 1.5C9.98896 1.5 11.556 3.067 11.556 5C11.556 6.933 9.98896 8.5 8.05596 8.5C6.12297 8.5 4.55596 6.933 4.55596 5ZM8.05596 0.5C5.57068 0.5 3.55596 2.51472 3.55596 5C3.55596 7.48528 5.57068 9.5 8.05596 9.5C10.5412 9.5 12.556 7.48528 12.556 5C12.556 2.51472 10.5412 0.5 8.05596 0.5ZM1.55591 17C1.55591 15.067 3.12291 13.5 5.05591 13.5H11.0559C12.9889 13.5 14.5559 15.067 14.5559 17C14.5559 17.8284 13.8843 18.5 13.0559 18.5H3.05591C2.22748 18.5 1.55591 17.8284 1.55591 17ZM5.05591 12.5C2.57063 12.5 0.555908 14.5147 0.555908 17C0.555908 18.3807 1.6752 19.5 3.05591 19.5H13.0559C14.4366 19.5 15.5559 18.3807 15.5559 17C15.5559 14.5147 13.5412 12.5 11.0559 12.5H5.05591Z" fill="white"/>
</svg>
