<svg width="31" height="30" viewBox="0 0 31 30" fill="none" xmlns="http://www.w3.org/2000/svg">
<path d="M0.101074 15.9563V14.0831C0.192583 13.8211 0.168337 13.5443 0.202751 13.2744C0.747892 9.01027 2.73371 5.5611 6.17272 2.99494C11.0102 -0.616915 17.4267 -0.986861 22.6443 2.06499C26.6441 4.40433 29.0616 7.90513 29.9087 12.4649C30.008 12.9999 30.0604 13.5435 30.1347 14.0824V15.9555C30.1183 16.0306 30.0917 16.1057 30.0862 16.1816C29.8883 18.7516 29.0937 21.1238 27.6522 23.2598C25.2597 26.8044 21.9513 28.9881 17.7333 29.7741C17.1796 29.8774 16.6157 29.9306 16.0564 30.0064H14.1793C14.1043 29.99 14.03 29.9642 13.9541 29.9579C10.9625 29.7202 8.2696 28.6972 5.91227 26.8467C2.8784 24.4659 1.00443 21.3718 0.325544 17.5722C0.230125 17.0372 0.174594 16.4944 0.101074 15.9548V15.9563ZM15.9798 12.9616C15.9798 12.5791 15.9688 12.2866 15.9837 11.9949C15.9947 11.7767 15.943 11.6859 15.6967 11.6906C14.8567 11.7063 14.0159 11.7023 13.1759 11.693C12.9756 11.6906 12.8927 11.7399 12.9115 11.9534C12.9334 12.1959 12.9295 12.4407 12.9287 12.6839C12.9232 15.2978 12.9162 17.9109 12.9099 20.5247C12.9094 20.7734 13.0374 20.8981 13.294 20.8986C14.0659 20.8986 14.8379 20.8861 15.6098 20.9056C15.8992 20.9127 15.9907 20.8454 15.9876 20.5388C15.9712 18.9394 15.9876 17.3399 15.9767 15.7405C15.9728 15.1695 16.1472 14.6869 16.5703 14.3029C17.4385 13.5169 18.7415 13.8782 19.0747 14.9935C19.1849 15.3619 19.2022 15.742 19.2029 16.1229C19.2053 17.6051 19.2115 19.088 19.1967 20.5701C19.1943 20.847 19.2819 20.9095 19.5416 20.9048C20.3527 20.89 21.1637 20.8923 21.9748 20.9041C22.1993 20.9072 22.2743 20.8493 22.2728 20.6123C22.2626 18.9347 22.2696 17.2578 22.265 15.5801C22.2634 15.0123 22.1953 14.4515 22.0334 13.9056C21.3428 11.585 18.4099 10.6707 16.629 12.2201C16.4021 12.418 16.2277 12.6628 15.9798 12.9616ZM8.14915 16.277C8.14915 17.72 8.14993 19.1638 8.14758 20.6069C8.14758 20.7734 8.13663 20.9064 8.37988 20.9033C9.2496 20.8915 10.1193 20.8947 10.9883 20.9017C11.1721 20.9033 11.219 20.8344 11.219 20.6624C11.2151 17.756 11.2151 14.8504 11.219 11.944C11.219 11.7555 11.1619 11.6898 10.9679 11.6922C10.1178 11.7008 9.26759 11.7039 8.4182 11.6906C8.19138 11.6875 8.14211 11.7634 8.14367 11.9761C8.15228 13.4097 8.14837 14.8434 8.14837 16.2762L8.14915 16.277ZM9.67038 10.447C10.5127 10.4494 11.1807 9.98715 11.3621 9.27541C11.5788 8.42837 11.1275 7.60479 10.3094 7.35373C9.34815 7.05887 8.36267 7.47965 8.06703 8.31262C8.04747 8.36736 8.03027 8.42368 8.01775 8.47999C7.78155 9.54994 8.53239 10.4431 9.67038 10.447Z" fill="#BFC8CF"/>
</svg>
