<svg width="31" height="30" viewBox="0 0 31 30" fill="none" xmlns="http://www.w3.org/2000/svg">
<path d="M14.1968 0.0371094C14.8207 0.0371094 15.4446 0.0371094 16.0678 0.0371094C16.1425 0.0534463 16.2171 0.0791186 16.2926 0.0845642C18.5518 0.253379 20.6748 0.887406 22.6173 2.0481C26.5825 4.41773 29.0175 7.87571 29.8717 12.4267C29.9736 12.9697 30.0257 13.5228 30.1012 14.0705V15.9415C30.0576 16.2978 30.0203 16.6549 29.9697 17.0104C29.464 20.5321 27.9494 23.5506 25.323 25.949C21.5336 29.4085 17.0674 30.6424 12.0419 29.6404C8.41355 28.9169 5.46746 27.007 3.22853 24.0648C0.733651 20.7858 -0.223225 17.0648 0.302668 12.9837C0.687752 9.9964 1.90757 7.36382 3.90923 5.11166C6.2353 2.49542 9.12537 0.864846 12.5818 0.263492C13.117 0.170138 13.6585 0.111014 14.1968 0.0371094ZM6.53325 23.7886C6.99224 23.7886 7.37266 23.7762 7.75074 23.7933C7.96701 23.8034 8.10704 23.7311 8.24707 23.5669C10.0714 21.4353 11.9058 19.3123 13.7293 17.18C13.8919 16.9901 13.9541 17.0041 14.0895 17.2025C15.5388 19.3255 16.999 21.4416 18.4499 23.5638C18.5603 23.7248 18.6723 23.7941 18.8731 23.7933C20.3932 23.7847 21.9133 23.7894 23.4334 23.7863C23.5135 23.7863 23.6061 23.8213 23.6886 23.7365C23.6364 23.6548 23.5874 23.5731 23.5337 23.4946C21.3337 20.2918 19.1352 17.0882 16.9274 13.8908C16.7959 13.7002 16.8084 13.5983 16.9562 13.4279C18.6467 11.4768 20.3286 9.51796 22.0121 7.56064C22.3847 7.12733 22.7558 6.69323 23.1767 6.20235C22.762 6.20235 22.4135 6.22024 22.0681 6.1969C21.7795 6.17745 21.5865 6.27469 21.3975 6.49719C20.0283 8.10832 18.6459 9.70778 17.2674 11.3104C16.8823 11.7584 16.4957 12.205 16.0973 12.6663C16.0149 12.5481 15.9472 12.4524 15.8818 12.3567C14.5251 10.3823 13.166 8.40938 11.814 6.43262C11.705 6.27392 11.5954 6.19612 11.3915 6.1969C9.87142 6.20624 8.35132 6.20157 6.83121 6.2039C6.74952 6.2039 6.65539 6.16889 6.57604 6.25991C6.62661 6.33926 6.67639 6.42173 6.73085 6.5003C8.83753 9.56619 10.9411 12.6344 13.0579 15.6925C13.2189 15.9251 13.1987 16.0512 13.0237 16.2527C11.4016 18.1213 9.79052 20 8.17705 21.8757C7.64572 22.4933 7.11438 23.1118 6.53403 23.7871L6.53325 23.7886Z" fill="#BFC8CF"/>
<path d="M21.6068 22.7057C21.154 22.7057 20.7028 22.6552 20.2687 22.7174C19.5569 22.8193 19.1695 22.5144 18.7719 21.9395C15.4734 17.1652 12.1376 12.4181 8.81342 7.66178C8.75274 7.57542 8.69517 7.48674 8.60026 7.34593C8.95811 7.34593 9.27163 7.34048 9.58514 7.34749C10.0317 7.35682 10.5467 7.19812 10.9045 7.40427C11.2499 7.60343 11.4374 8.07953 11.6879 8.43739C14.9405 13.0887 18.1924 17.7409 21.4434 22.3938C21.5025 22.4786 21.5842 22.5525 21.6068 22.7057Z" fill="#BFC8CF"/>
</svg>
