<svg width="25" height="25" viewBox="0 0 25 25" fill="none" xmlns="http://www.w3.org/2000/svg">
<path fill-rule="evenodd" clip-rule="evenodd" d="M11.3167 7.4751C9.7598 5.88281 7.19782 5.88281 5.64092 7.4751C4.13272 9.01758 4.13271 11.4823 5.64092 13.0248L12.7401 20.2853C12.8162 20.3631 12.9414 20.3631 13.0175 20.2853L20.1167 13.0248C21.6249 11.4823 21.6249 9.01758 20.1167 7.4751C18.5598 5.88281 15.9978 5.88281 14.4409 7.4751L13.4151 8.52427C13.274 8.66858 13.0806 8.74993 12.8788 8.74993C12.677 8.74993 12.4837 8.66858 12.3426 8.52427L11.3167 7.4751ZM4.56841 6.42642C6.7137 4.23237 10.2439 4.23237 12.3892 6.42642L12.8788 6.92715L13.3684 6.42642C15.5137 4.23237 19.0439 4.23237 21.1892 6.42642C23.2674 8.55184 23.2674 11.948 21.1892 14.0734L14.09 21.3339C13.4255 22.0135 12.3321 22.0135 11.6676 21.3339L4.56841 14.0734C2.49022 11.948 2.49022 8.55184 4.56841 6.42642Z" fill="#22323B"/>
</svg>
