<svg width="24" height="25" viewBox="0 0 24 25" fill="none" xmlns="http://www.w3.org/2000/svg">
<path fill-rule="evenodd" clip-rule="evenodd" d="M2.75781 12.6738C2.75781 7.56519 6.89918 3.42383 12.0078 3.42383C17.1164 3.42383 21.2578 7.56519 21.2578 12.6738C21.2578 17.7825 17.1164 21.9238 12.0078 21.9238C6.89918 21.9238 2.75781 17.7825 2.75781 12.6738ZM12.0078 1.92383C6.07075 1.92383 1.25781 6.73677 1.25781 12.6738C1.25781 18.6109 6.07075 23.4238 12.0078 23.4238C17.9449 23.4238 22.7578 18.6109 22.7578 12.6738C22.7578 6.73677 17.9449 1.92383 12.0078 1.92383ZM10.536 9.66067C10.0078 9.94332 10.0078 10.7658 10.0078 12.4109V12.9368C10.0078 14.5818 10.0078 15.4043 10.536 15.687C11.0641 15.9696 11.7485 15.5134 13.1172 14.6009L13.5117 14.3379C14.6406 13.5853 15.205 13.209 15.205 12.6738C15.205 12.1386 14.6406 11.7623 13.5117 11.0097L13.1172 10.7468C11.7485 9.83427 11.0641 9.37802 10.536 9.66067Z" fill="#356197"/>
</svg>
