<svg width="12.979736" height="12.979492" viewBox="0 0 12.9797 12.9795" fill="none" xmlns="http://www.w3.org/2000/svg" xmlns:xlink="http://www.w3.org/1999/xlink">
	<desc>
			Created with Pixso.
	</desc>
	<defs/>
	<path id="Union" d="M7.23975 0.75C7.23975 0.330078 6.90991 0 6.48975 0C6.06982 0 5.73975 0.330078 5.73975 0.75L5.73975 5.73975L0.75 5.73975C0.330078 5.73975 0 6.06982 0 6.48975C0 6.90991 0.330078 7.23975 0.75 7.23975L5.73975 7.23975L5.73975 12.2295C5.73975 12.6497 6.06982 12.9795 6.48975 12.9795C6.90991 12.9795 7.23975 12.6497 7.23975 12.2295L7.23975 7.23975L12.2297 7.23975C12.6497 7.23975 12.9797 6.90991 12.9797 6.48975C12.9797 6.06982 12.6497 5.73975 12.2297 5.73975L7.23975 5.73975L7.23975 0.75Z" clip-rule="evenodd" fill="#6E7884" fill-opacity="1.000000" fill-rule="evenodd"/>
</svg>
