<svg width="24" height="25" viewBox="0 0 24 25" fill="none" xmlns="http://www.w3.org/2000/svg">
<path fill-rule="evenodd" clip-rule="evenodd" d="M9.7019 6.03277C10.3836 5.35111 10.8426 4.89434 11.2301 4.59871C11.6002 4.31628 11.8157 4.25244 12 4.25244C12.1843 4.25244 12.3998 4.31628 12.7699 4.59871C13.1574 4.89434 13.6164 5.35111 14.2981 6.03277L16.4697 8.20434L16.7123 8.44699C17.6227 9.35735 17.9207 9.67418 18.0787 10.0556C18.2367 10.4371 18.25 10.8718 18.25 12.1593V15.674C18.25 17.1094 18.2484 18.1105 18.1469 18.8659C18.0482 19.5997 17.8678 19.9882 17.591 20.265C17.3142 20.5418 16.9257 20.7222 16.1919 20.8209C15.4365 20.9224 14.4354 20.924 13 20.924H11C9.56458 20.924 8.56347 20.9224 7.80812 20.8209C7.07434 20.7222 6.68577 20.5418 6.40901 20.265C6.13225 19.9882 5.9518 19.5997 5.85315 18.8659C5.75159 18.1105 5.75 17.1094 5.75 15.674V12.1593C5.75 10.8718 5.76328 10.4371 5.92127 10.0556C6.0788 9.6753 6.37558 9.35921 7.27968 8.45499C7.28235 8.45233 7.28502 8.44966 7.28769 8.44698L7.53033 8.20434C7.53049 8.20418 7.53065 8.20402 7.53081 8.20386L9.7019 6.03277ZM6.47015 7.1432L8.64124 4.97211L8.67801 4.93535C9.31331 4.3 9.84307 3.7702 10.3202 3.40617C10.8238 3.02194 11.3559 2.75244 12 2.75244C12.6441 2.75244 13.1762 3.02194 13.6798 3.40618C14.1569 3.7702 14.6867 4.3 15.322 4.93533L15.3588 4.97211L17.5296 7.14298C17.5299 7.14322 17.5301 7.14345 17.5303 7.14368L17.773 7.38633L17.7745 7.38786L17.8738 7.48713C17.9389 7.55211 18.0022 7.6154 18.0639 7.67726L22.5303 12.1437C22.8232 12.4366 22.8232 12.9115 22.5303 13.2043C22.2374 13.4972 21.7626 13.4972 21.4697 13.2043L19.7488 11.4835C19.7502 11.6523 19.7501 11.8296 19.75 12.0167L19.75 12.1593V15.674V15.7289C19.75 17.0965 19.75 18.1988 19.6335 19.0658C19.5125 19.9659 19.2536 20.7237 18.6516 21.3257C18.0497 21.9276 17.2919 22.1865 16.3918 22.3075C15.5248 22.4241 14.4225 22.424 13.0549 22.424H13H11H10.9451C9.57754 22.424 8.47522 22.4241 7.60825 22.3075C6.70814 22.1865 5.95027 21.9276 5.34835 21.3257C4.74643 20.7237 4.48754 19.9659 4.36652 19.0658C4.24996 18.1988 4.24998 17.0965 4.25 15.7289L4.25 15.674V12.1593L4.24995 12.0167C4.24987 11.8296 4.24978 11.6523 4.25116 11.4835L2.53033 13.2043C2.23744 13.4972 1.76256 13.4972 1.46967 13.2043C1.17678 12.9115 1.17678 12.4366 1.46967 12.1437L5.93593 7.67743C5.99765 7.61551 6.06107 7.55216 6.12616 7.48713L6.12616 7.48713L6.22625 7.3871L6.22703 7.38632L6.46967 7.14368C6.46983 7.14352 6.46999 7.14336 6.47015 7.1432Z" fill="#748894"/>
</svg>
