<svg width="31" height="31" viewBox="0 0 31 31" fill="none" xmlns="http://www.w3.org/2000/svg">
<path fill-rule="evenodd" clip-rule="evenodd" d="M16.1011 2.28302C15.9751 2.02611 15.7139 1.86328 15.4278 1.86328C15.1416 1.86328 14.8804 2.02611 14.7544 2.28302L11.1781 9.57465L4.06852 10.6213C3.78779 10.6626 3.55442 10.8588 3.46552 11.1283C3.37661 11.3978 3.4474 11.6943 3.64841 11.8946L8.97952 17.2059L7.19637 25.0599C7.13181 25.3443 7.2379 25.6403 7.46838 25.8188C7.69885 25.9974 8.01195 26.0263 8.27116 25.8928L15.4278 22.2069L22.5844 25.8928C22.8436 26.0263 23.1567 25.9974 23.3871 25.8188C23.6176 25.6403 23.7237 25.3443 23.6591 25.0599L21.876 17.2059L27.2071 11.8946C27.4081 11.6943 27.4789 11.3978 27.39 11.1283C27.3011 10.8588 27.0677 10.6626 26.787 10.6213L19.6774 9.57465L16.1011 2.28302Z" fill="#F1F2F4"/>
</svg>
